<?xml version="1.0" standalone="no"?>
<!DOCTYPE svg PUBLIC "-//W3C//DTD SVG 20010904//EN"
 "http://www.w3.org/TR/2001/REC-SVG-20010904/DTD/svg10.dtd">
<svg version="1.0" xmlns="http://www.w3.org/2000/svg"
 width="16.000000pt" height="16.000000pt" viewBox="0 0 16.000000 16.000000"
 preserveAspectRatio="xMidYMid meet">

<g transform="translate(0.000000,16.000000) scale(0.100000,-0.100000)"
fill="#000000" stroke="none">
<path d="M0 80 l0 -80 80 0 80 0 0 80 0 80 -80 0 -80 0 0 -80z m101 38 c1 -7
0 -23 -1 -35 -1 -13 4 -23 10 -23 6 0 8 -5 5 -10 -12 -19 -26 2 -23 33 2 24
-1 33 -15 35 -15 3 -17 -2 -14 -32 3 -20 0 -39 -4 -42 -10 -6 -12 69 -2 79 11
12 43 8 44 -5z"/>
</g>
</svg>
